<svg width="120" height="120" viewBox="0 0 120 120" fill="none" xmlns="http://www.w3.org/2000/svg">
<g clip-path="url(#clip0_2_512)">
<path fill-rule="evenodd" clip-rule="evenodd" d="M-9.24321e-06 94V26C-0.00683463 22.5837 0.661017 19.1997 1.96522 16.0422C3.26943 12.8846 5.18431 10.0157 7.59999 7.59999C10.0157 5.18431 12.8846 3.26943 16.0422 1.96522C19.1997 0.661017 22.5837 -0.00683463 26 -9.24321e-06H94C97.4163 -0.00683463 100.8 0.661017 103.958 1.96522C107.115 3.26943 109.984 5.18431 112.4 7.59999C114.816 10.0157 116.731 12.8846 118.035 16.0422C119.339 19.1997 120.007 22.5837 120 26V94C120.007 97.4163 119.339 100.8 118.035 103.958C116.731 107.115 114.816 109.984 112.4 112.4C109.984 114.816 107.115 116.731 103.958 118.035C100.8 119.339 97.4163 120.007 94 120H26C19.1053 119.997 12.494 117.257 7.61873 112.381C2.74347 107.506 0.0031707 100.895 -9.24321e-06 94Z" fill="url(#paint0_linear_2_512)"/>
<path fill-rule="evenodd" clip-rule="evenodd" d="M99 86.2C98.0856 86.7206 97.0522 86.9961 96 87H24C22.9461 87.0094 21.9093 86.7329 21 86.2L45 62.2L50.9 68.1C52.1037 69.2588 53.5324 70.1584 55.0976 70.7432C56.6628 71.328 58.3313 71.5856 60 71.5C61.6677 71.5765 63.3337 71.3146 64.8976 70.7303C66.4615 70.146 67.891 69.2513 69.1 68.1L75 62.2L99 86.2ZM101.1 84L77.1 60L101.1 36C101.621 36.9144 101.896 37.9478 101.9 39V81C101.993 82.0629 101.71 83.1247 101.1 84ZM18.8 84C18.2794 83.0856 18.0038 82.0522 18 81V39C17.9906 37.9461 18.2671 36.9093 18.8 36L42.8 60L18.8 84ZM99 33.8L66.9 65.9C65.9861 66.7783 64.9032 67.4617 63.717 67.9087C62.5309 68.3556 61.2663 68.5568 60 68.5C58.7337 68.5568 57.4691 68.3556 56.283 67.9087C55.0968 67.4617 54.0139 66.7783 53.1 65.9L21 33.8C21.9144 33.2794 22.9478 33.0039 24 33H96C97.0522 33.0038 98.0856 33.2794 99 33.8Z" fill="white"/>
</g>
<defs>
<linearGradient id="paint0_linear_2_512" x1="60" y1="-9.24321e-06" x2="60" y2="120.001" gradientUnits="userSpaceOnUse">
<stop stop-color="#1D6FF2"/>
<stop offset="1" stop-color="#1AC8FC"/>
</linearGradient>
<clipPath id="clip0_2_512">
<rect width="120" height="120" fill="white"/>
</clipPath>
</defs>
</svg>

